<svg xmlns="http://www.w3.org/2000/svg" style="height:512px;width:512px" viewBox="0 0 512 512">
  <path fill="#fff" d="M119.1 25v.1c-25 3.2-47.1 32-47.1 68.8a80 80 0 0017.5 50.9L99.7 157 84 159.9a49.9 49.9 0 00-32.2 21.5 130.7 130.7 0 00-19.4 45.8c-8.2 33.6-9.9 74.7-10.1 110.5h44l11.9 158.4h96.3L185 337.7h41.9c0-36.2-.3-77.8-7.8-111.7a121 121 0 00-18.7-45.9 50.4 50.4 0 00-34.5-21l-16-2.5L160 144a80.6 80.6 0 0016.7-50.1c0-39.2-24.8-68.8-52.4-68.8l-5.2-.1zM440 33c-17.2 0-31 13.8-31 31s13.8 31 31 31 31-13.8 31-31-13.8-31-31-31zM311 55v48H208v18h103v158h-55v18h55v110H208v18h103v32h80.8a52.9 52.9 0 010-18H329V297h62.8a52.9 52.9 0 010-18H329V73h62.8a53.3 53.3 0 010-18H311zm129 202c-17.2 0-31 13.8-31 31s13.8 31 31 31 31-13.8 31-31-13.8-31-31-31zm0 160c-17.2 0-31 13.8-31 31s13.8 31 31 31 31-13.8 31-31-13.8-31-31-31z"/>
</svg>
