<svg xmlns="http://www.w3.org/2000/svg" viewBox="0 0 512 512" style="height:512px;width:512px">
  <path fill="#fff" d="M186.4 20.6l-13.1 26.3 20.4-.7 3.9-7.6h116.8l3.8 7.5 20.5.7-13.1-26.2H186.4zM256 63.3c-45.8 0-91.5 1.6-135.4 4.4-3.2 50.5-8.4 101-.8 145.8a979.8 979.8 0 00272.8 0c7-31 5.1-84.7-1-146-44-2.8-89.8-4.3-135.6-4.2zm153.8 5.5c6.4 64.2 9 119.9-1.2 155.3l-1.6 5.5-5.7.9a998.7 998.7 0 01-290.6 0l-6.3-1-1.2-6.2c-10-49.5-4.1-102.8-.7-154.4L88 70c-8.6 58.6-9.4 117 0 175.3 110.2 12 222.2 12.2 336.2 0A612.6 612.6 0 00424 70l-14.3-1.2zM256 92.3c32.5 0 65 2.7 97.5 8.4l7.5 1.3v7.6c0 15.5 1.7 35-12.7 50.2-9.9 10.5-25.6 17.3-51.3 20.6v18.2h-82V180c-24-3.4-39.4-10.2-49.4-20.2-14.8-14.8-14.6-34.3-14.6-50.3V102l7.5-1.3a581 581 0 0197.5-8.4zm0 18c-29 0-58 2.4-86.9 7 .3 12.3 1.7 22.3 9.3 29.9 5.9 6 17 11.4 36.6 14.6v-29.2h82V162c21.4-3.1 32.7-8.8 38.3-14.7 7-7.4 7.7-17.5 7.7-30.1-29-4.6-58-7-87-7zm-23 40.3v30h46v-30h-46zM442.7 243l-1.6 10.9.6 7 29.3 29.3V268l-28.3-25zm-373.5.1L41 268v22.2L70.3 261l.6-7-1.7-10.8zm354.6 20.4l-30.8 3v74h16v66h-16v80.7l31-2.1c9.4-74 6.4-147.7-.2-221.6zm-335.6 0c-6.5 74.6-9.6 148.6-.1 221.6l30.9 2.1v-80.6h-16v-66h16v-74l-30.8-3zM375 268c-10 .8-20 1.5-30 2v70.7h30v-72.7zm-238 .1v72.6h30V270c-10-.6-20-1.2-30-2zm190 2.8c-47.7 2.2-95 2.2-142 .1v19.3a334.2 334.2 0 01142 0v-19.4zM68 288.6l-27 27v57h23c.4-28 2-56 4-84zm376 0c2.1 28 3.6 55.9 4 84h23v-57l-27-27zm-187.5 12c-23.7 0-47.5 2.6-71.5 8v32h16V359a195 195 0 0046 9.4v-2.8h18v2.8c14.3-1 29-4 46-9.4v-18.4h16v-32c-23.4-5.2-47-8-70.5-8zm-135.5 58v30h22v-23h18v23h22v-30h-62zm208 0v30h22v-23h18v23h22v-30h-62zm-128 19.2v28.8h-16v15.8a316.8 316.8 0 00142 0v-15.8h-16v-28.8a203.3 203.3 0 01-46 8.3v11.5h-18V386c-14.7-.8-29.7-3.6-46-8.3zM41 390.6v14h23.1l-.1-14H41zm407 0c0 4.6 0 9.3-.2 14H471v-14h-23zm-311 16v19.8c6.1 7.2 11.2 9.7 15 9.8 3.7 0 8.6-2.1 15-9.8v-19.8h-6v7h-18v-7h-6zm208 0v19.8c6.1 7.2 11.2 9.7 15 9.8 3.7 0 8.6-2.1 15-9.8v-19.8h-6v7h-18v-7h-6zm-304 16v35.1c5.6 5.5 8.7 8.3 11.8 9.3a67 67 0 0015 1.3 759 759 0 01-3.1-45.7H41zm406.3 0c-.7 15.2-1.7 30.4-3.2 45.7 7.3-.1 12.6-.5 15-1.3 3.2-1 6.3-3.8 11.9-9.3v-35.1h-23.7zM185 440.8v49.5c47.5 1.5 94.9 1.5 142 0v-49.4a335.3 335.3 0 01-142 0zm-48 9.2v38.3l30 1.4V450c-4.9 2.8-10 4.3-15.4 4.2-5.2-.1-10-1.6-14.6-4.2zm208 0v39.6l30-1.4V450c-4.9 2.8-10 4.3-15.4 4.2-5.2-.1-10-1.6-14.6-4.2z"/>
</svg>
