<svg xmlns="http://www.w3.org/2000/svg" style="height:512px;width:512px" viewBox="0 0 512 512">
  <path fill="#fff" d="M373.6 18.4c-15.7-.2-28 4.6-32.6 14.8-22.8 49.6-48.7 87.1-79 117.2 3 1 6 2.3 8.8 3.8 13 6.7 25.3 17.8 35.4 30.9 10 13 17.8 28 20.7 43.5.8 3.9 1.2 7.8 1.2 11.8 39-24.4 85-41.2 140.9-51.3 14.9-2.7 23.6-28.6 21.4-58.7l-35.2-1 30.6-24.8c-4.2-14.5-11-28.7-21.2-40.7A135.6 135.6 0 00408 25.2l-26 15.6 2.9-21.5c-4-.5-7.7-.9-11.2-.9zM246.9 166.6c-1 0-2 .2-3 .4a361.4 361.4 0 01-37.9 28.3l2.5 1A107 107 0 01247 227c13.3 16.3 23.6 37 25.6 57.7 10.3-10.3 21.2-20 32.8-28.7 4.1-6.6 5-14.5 3.2-24a89.5 89.5 0 00-17.3-35.6 94.1 94.1 0 00-29-25.6c-6.1-3.1-11.2-4.4-15.4-4.2zM185 209.8c-1.4.1-2.7.3-4 .6-37 20.8-79 38-127.2 56l1.7.2c10.6 1.1 21 5 31.1 10.8l37.7-16.4-15.8 32.7c6 5.5 11.8 11.5 17.3 18 20.8 24.5 38 55.9 47.1 88.1 3 10.6 5.1 21 6.3 31 21-48.4 44.4-89.2 72.4-123 7.3-21.4-2.2-48.4-19-69a90.4 90.4 0 00-31.6-25.3c-6-2.6-11.3-3.8-16-3.7zm141.7 54.9a302 302 0 00-21.5 16.3c39.2 9.3 61 35.7 80.7 62.2 10.4 14 20.6 28 33.1 40.6 24.2 9.2 43.2 6.4 64-14.9-92.3-27.8-96.2-92.6-156.3-104.2zM48.6 284.9c-10.9.2-18.3 5.8-23.4 16.6-5.8 12.4-7 32.5.5 57a146.8 146.8 0 0028.7 51.7c12.3 13.9 26 22 35.4 22.4 3.8.1 6.6-.7 8.9-2.8l-.2-.1 2-2.1c.9-1.2 1.6-2.6 2.2-4.2 2.9-7 3.3-18.6-1.8-33-6.9-19.4-19.1-32-33.4-34.8l-23-4.6 19.9-12.5 38.4-24.2c-16.6-16.8-34.5-27.6-49.3-29.2a38 38 0 00-5-.2zm236.2 5.4l-24.5 25.4c100.5 17.9 55.5 141 159.3 176.2l-24.8-57.3c32.8 16.1 67.4 22.6 97.8 12-135.8-42-96.4-127-207.8-156.3zm-169.4 38.2l-26 16.4a76.3 76.3 0 0129.1 39.2 86.5 86.5 0 014.8 20.8l23.4-23.4c-8-19.2-19-37.5-31.3-53zm38.3 72.4l-42 42-.2-.1c-4.2 3.9-9.4 6.7-15.2 7.9 23.3 14.9 44.7 19.3 56.9 9.6 4.2-3.5 7-8.4 8.4-14.5-.4-12.6-2.6-26.6-6.6-40.9l-1.3-4z"/>
</svg>
