<svg xmlns="http://www.w3.org/2000/svg" viewBox="0 0 512 512" style="height:512px;width:512px">
  <path d="M50.3 19.4l-1.8.1C31 22.2 19.3 34.3 19.3 55.7 54.6 74 86 98.4 105 141l-40.3 58.4 25.7 25.1c7.2-14 15.4-27.6 25.2-40.9L184 116c14.3-10.8 29-20.7 44.4-28.6l-25.1-25.1-62 42.6a166.8 166.8 0 01-85.2-85.3c-2 0-3.9-.2-5.8-.1zm164.2 97.2c-5 3.2-10.2 6.8-15.6 10.8l60.3 60.3-41 6.7-43-42.1-46.2 43.1.3.3c-3.7 5-7 9.8-10 14.6l256 255.9 117 20.5-22.6-115-255.2-255.1zM175 178.1l37 36.2 21.2-3.4 6.5 39.7-46.7 7-49.8-49.8L175 178zM275.5 204l88.2 88.2-16 36.5-33.4-33.2-61.6 22-43.3-43.4 51.8-7.7-9.7-58.5 24-3.9zm102.4 102.4l74.6 74.5 16.1 82.8-35.3-6.2-7.6-51.2-63.8-63.4 16-36.5zM309.5 317l98.6 98 5.8 39-29.6-5.2-117-116.8 42.2-15z" fill="#fff"/>
</svg>
